<svg width="80" height="80" viewBox="0 0 80 80" fill="none" xmlns="http://www.w3.org/2000/svg">
<rect width="80" height="80" rx="40" fill="#F7931A"/>
<path d="M58.629 33.084C59.4174 27.8128 55.4043 24.9793 49.9166 23.0891L51.6968 15.9487L47.3503 14.8657L45.6173 21.818C44.4746 21.533 43.3011 21.2645 42.1348 20.9983L43.8804 14L39.5366 12.917L37.7554 20.055C36.8098 19.8397 35.881 19.6269 34.98 19.4027L34.985 19.3803L28.991 17.8835L27.8348 22.5259C27.8348 22.5259 31.0596 23.2651 30.9916 23.3106C32.7517 23.7499 33.07 24.915 33.0172 25.8385L30.9893 33.973C31.1105 34.0038 31.2677 34.0484 31.4412 34.1181C31.2962 34.082 31.1418 34.0427 30.9817 34.0044L28.1393 45.3997C27.9242 45.9345 27.3783 46.737 26.1477 46.4322C26.1912 46.4953 22.9885 45.6438 22.9885 45.6438L20.8306 50.6192L26.4869 52.0293C27.5392 52.2932 28.5703 52.5693 29.5858 52.8289L27.7872 60.0511L32.1287 61.1342L33.9099 53.9886C35.0959 54.3106 36.247 54.6076 37.3738 54.8876L35.5986 61.9994L39.9453 63.0825L41.7437 55.8738C49.1555 57.2765 54.7286 56.711 57.0743 50.007C58.9646 44.6096 56.9803 41.4963 53.0809 39.4661C55.921 38.8112 58.0602 36.9432 58.6306 33.0846L58.6292 33.0836L58.629 33.084ZM48.6982 47.0096C47.3549 52.407 38.2673 49.4893 35.3209 48.7577L37.7077 39.1895C40.6539 39.925 50.1021 41.3806 48.6984 47.0096H48.6982ZM50.0424 33.0058C48.8171 37.9153 41.2533 35.421 38.7997 34.8094L40.9637 26.1316C43.4173 26.7433 51.3189 27.8848 50.0428 33.0058H50.0424Z" fill="white"/>
</svg>
