<svg width="310" height="310" viewBox="0 0 310 310" fill="none" xmlns="http://www.w3.org/2000/svg">
<path d="M150.284 0.0620051C235.636 -2.33232 306.771 64.9128 309.176 150.265C311.581 235.617 244.346 306.761 158.994 309.176C73.6268 311.593 2.4678 244.341 0.0625507 158.975C-2.3427 73.6076 64.9168 2.45676 150.284 0.0620051Z" fill="#627DEB"/>
<path d="M87.269 156.4C88.0028 154.681 89.5718 152.615 90.4991 150.89C93.6086 145.109 97.5473 139.862 100.93 134.266L139.985 70.2146C145.924 60.4146 152.327 50.9718 157.799 40.8986C158.148 40.2561 158.66 39.4948 159.215 39.0298L159.518 39.3501C165.459 47.1481 171.433 58.7166 176.655 67.1566L214.744 128.497L223.536 143.167C227.034 149.067 227.791 150.864 232.016 156.309L231.869 156.634C231.709 156.691 224.406 160.866 224.029 161.124C214.866 167.381 204.886 172.181 195.344 177.798L170.505 192.328C168.497 193.51 160.82 198.288 159.215 198.873C157.791 198.554 153.82 195.115 152.159 194.246C140.78 188.288 129.776 181.803 118.846 175.078C112.641 171.26 105.881 168.343 99.7966 164.19C95.9048 161.533 91.3753 159.274 87.2918 156.75L87.269 156.4Z" fill="#C0CCF5"/>
<path d="M87.269 156.4C88.0028 154.681 89.5718 152.615 90.4991 150.89C93.6086 145.109 97.5473 139.862 100.93 134.266L139.985 70.2146C145.924 60.4146 152.327 50.9718 157.799 40.8986C158.148 40.2561 158.66 39.4948 159.215 39.0298L159.518 39.3501L159.487 39.6308C159.098 43.3836 159.344 52.0586 159.345 56.2598L159.354 100.641C159.354 103.037 159.626 123.653 158.963 124.411C153.017 127.27 87.8973 156.578 87.269 156.4Z" fill="white"/>
<path d="M159.347 124.454C167.79 127.765 229.586 156.503 232.016 156.309L231.869 156.634C231.709 156.691 224.406 160.866 224.029 161.124C214.866 167.381 204.886 172.181 195.344 177.798L170.505 192.328C168.497 193.51 160.82 198.288 159.215 198.873C159.46 197.727 159.365 193.104 159.357 191.677L159.297 178.132L159.347 124.454Z" fill="#8197EE"/>
<path d="M159.141 212.065C167.406 207.953 175.491 203.487 183.374 198.681C185.674 197.289 188.871 194.894 191.036 193.728C198.761 189.567 206.264 185.228 213.851 180.869C218.704 178.08 227.636 171.932 232.496 170.176C228.689 173.968 226.539 177.333 223.596 181.814C221.704 184.695 219.439 187.667 217.409 190.473L184.516 236.139C182.466 238.973 179.675 242.138 177.838 244.818C173.405 251.278 168.836 257.546 164.385 263.976C163.452 265.326 160.158 269.051 159.654 270.056C159.153 267.586 159.334 257.436 159.333 254.446L159.305 224.011C159.315 221.756 159.538 213.714 159.141 212.065Z" fill="#C0CCF5"/>
<path d="M86.789 170.179C91.0635 172.35 96.0138 175.461 100.351 177.746C102.487 178.871 105.392 181.26 107.712 182.482C115.519 186.599 122.99 191.215 130.768 195.36C132.486 196.276 134.763 198.145 136.655 199.262C143.959 203.572 152.084 207.402 159.141 212.065C159.538 213.714 159.315 221.756 159.305 224.011L159.333 254.446C159.334 257.436 159.153 267.586 159.654 270.056L159.41 270.246L159.001 270.193C156.099 266.723 153.992 262.306 151.256 258.928C146.556 253.126 142.609 247.248 138.289 241.216L109.114 201.247C105.768 196.64 102.811 191.502 99.2175 187.079C94.7667 181.6 91.0688 175.772 86.789 170.179Z" fill="white"/>
</svg>
