<svg width="372" height="372" viewBox="0 0 372 372" fill="none" xmlns="http://www.w3.org/2000/svg">
<rect width="372" height="372" rx="186" fill="white"/>
<g clip-path="url(#clip0_2001_243)">
<path d="M258.222 110C242.447 110 225.174 118.608 206.954 135.588C198.357 143.565 190.785 152.253 185.263 159.123C185.263 159.123 194.097 169.311 203.799 180.289C209.083 173.655 216.576 164.652 225.331 156.517C241.501 141.354 252.07 138.274 258.143 138.274C280.859 138.274 299.315 157.386 299.315 181C299.315 204.377 280.859 223.489 258.143 223.726C257.039 223.726 255.777 223.568 254.199 223.252C260.825 226.333 268.002 228.544 274.707 228.544C316.352 228.544 324.555 199.717 325.028 197.664C326.211 192.373 326.921 186.844 326.921 181.158C326.842 141.907 296.081 110 258.222 110Z" fill="url(#paint0_linear_2001_243)"/>
<path d="M112.699 252C128.474 252 145.747 243.392 163.967 226.412C172.565 218.435 180.137 209.748 185.658 202.877C185.658 202.877 176.824 192.689 167.122 181.711C161.838 188.345 154.345 197.348 145.59 205.483C129.421 220.488 118.773 223.727 112.778 223.727C90.0624 223.727 71.6059 204.614 71.6059 181C71.6059 157.623 90.0624 138.511 112.778 138.274C113.882 138.274 115.144 138.432 116.722 138.748C110.096 135.668 102.919 133.456 96.2146 133.456C54.5691 133.377 46.3662 162.204 45.893 164.336C44.7099 169.628 44 175.156 44 180.842C44 220.094 74.7609 252 112.699 252Z" fill="url(#paint1_linear_2001_243)"/>
<path fill-rule="evenodd" clip-rule="evenodd" d="M144.407 157.149C139.832 152.726 117.59 134.641 96.2935 134.009C58.2762 133.061 47.155 160.703 46.1296 164.257C53.4649 133.298 80.5976 110.158 112.778 110C139.043 110 165.624 135.825 185.263 159.123L185.342 159.044C185.342 159.044 194.176 169.232 203.878 180.21C203.878 180.21 214.92 193.241 226.593 204.693C231.168 209.116 253.332 226.964 274.628 227.596C313.67 228.702 324.476 199.481 325.028 197.269C317.851 228.465 290.639 251.684 258.301 251.842C232.036 251.842 205.455 226.017 185.737 202.719C185.737 202.798 185.658 202.798 185.658 202.877C185.658 202.877 176.824 192.689 167.122 181.711C167.201 181.711 156.159 168.601 144.407 157.149Z" fill="#29ABE2"/>
</g>
<defs>
<linearGradient id="paint0_linear_2001_243" x1="221.297" y1="121.251" x2="318.661" y2="219.289" gradientUnits="userSpaceOnUse">
<stop offset="0.21" stop-color="#F15A24"/>
<stop offset="0.6841" stop-color="#FBB03B"/>
</linearGradient>
<linearGradient id="paint1_linear_2001_243" x1="149.649" y1="240.765" x2="52.2847" y2="142.727" gradientUnits="userSpaceOnUse">
<stop offset="0.21" stop-color="#ED1E79"/>
<stop offset="0.8929" stop-color="#522785"/>
</linearGradient>
<clipPath id="clip0_2001_243">
<rect width="283" height="142" fill="white" transform="translate(44 110)"/>
</clipPath>
</defs>
</svg>
