<svg width="80" height="80" viewBox="0 0 80 80" fill="none" xmlns="http://www.w3.org/2000/svg">
<rect width="80" height="80" rx="40" fill="#50AF95"/>
<path fill-rule="evenodd" clip-rule="evenodd" d="M44.4178 41.5021C44.171 41.5206 42.8962 41.5967 40.0524 41.5967C37.7905 41.5967 36.1846 41.5288 35.6212 41.5021C26.8801 41.1176 20.3557 39.5959 20.3557 37.7741C20.3557 35.9523 26.8801 34.4327 35.6212 34.042V39.9866C36.1928 40.0278 37.8296 40.1244 40.0915 40.1244C42.8057 40.1244 44.1649 40.0113 44.4096 39.9887V34.0462C53.1321 34.4348 59.6422 35.9564 59.6422 37.7741C59.6422 39.5918 53.1342 41.1135 44.4096 41.5L44.4178 41.5021ZM44.4178 33.4313V28.1119H56.5907V20H23.4483V28.1119H35.6192V33.4293C25.7266 33.8837 18.2871 35.8433 18.2871 38.1915C18.2871 40.5398 25.7266 42.4973 35.6192 42.9538V60H44.4157V42.9476C54.2857 42.4932 61.7128 40.5357 61.7128 38.1895C61.7128 35.8433 54.2919 33.8858 44.4157 33.4293L44.4178 33.4313Z" fill="white"/>
<path fill-rule="evenodd" clip-rule="evenodd" d="M44.4178 41.5021C44.171 41.5206 42.8962 41.5967 40.0524 41.5967C37.7905 41.5967 36.1846 41.5288 35.6212 41.5021C26.8801 41.1176 20.3557 39.5959 20.3557 37.7741C20.3557 35.9523 26.8801 34.4327 35.6212 34.042V39.9866C36.1928 40.0278 37.8296 40.1244 40.0915 40.1244C42.8057 40.1244 44.1649 40.0113 44.4096 39.9887V34.0462C53.1321 34.4348 59.6422 35.9564 59.6422 37.7741C59.6422 39.5918 53.1342 41.1135 44.4096 41.5L44.4178 41.5021ZM44.4178 33.4313V28.1119H56.5907V20H23.4483V28.1119H35.6191V33.4293C25.7266 33.8837 18.2871 35.8433 18.2871 38.1915C18.2871 40.5398 25.7266 42.4973 35.6191 42.9538V60H44.4157V42.9476C54.2857 42.4932 61.7128 40.5357 61.7128 38.1895C61.7128 35.8433 54.2918 33.8858 44.4157 33.4293L44.4178 33.4313Z" fill="white"/>
</svg>
